<svg width="39" height="40" viewBox="0 0 39 40" fill="none" xmlns="http://www.w3.org/2000/svg">
<rect width="39" height="40" fill="#F5F5F5"/>
<g clip-path="url(#clip0_0_1)">
<path d="M5.70863 4.98499C7.26375 3.37874 8.55563 2.065 8.57878 2.065C8.59828 2.065 10.9736 4.4925 13.8633 7.45125L19.1149 12.8412L16.8858 15.1712C15.5293 16.5825 14.6067 17.6075 14.5251 17.7687C14.3544 18.13 14.3483 18.9262 14.5202 19.3012C14.6908 19.6675 19.8242 24.9312 20.1813 25.1075C20.542 25.2825 21.3232 25.2787 21.6755 25.1025C21.8339 25.02 22.8272 24.0725 24.208 22.6812L26.4798 20.395L37.0195 31.2012L34.1579 34.1262C32.3871 35.9325 31.0867 37.2075 30.7491 37.4612C30.0889 37.9442 29.3645 38.3273 28.598 38.5987C26.9551 39.14 24.7833 39.2137 22.7516 38.7937C18.8906 37.9937 14.887 35.8312 11.0833 32.49C9.74539 31.2936 8.48878 30.0047 7.32225 28.6325C4.95056 25.7912 3.081 22.6462 2.028 19.7325C0.390001 15.1937 0.548438 11.1375 2.47528 8.4625C2.72269 8.115 3.95606 6.79249 5.70863 4.98499ZM11.6634 9.73125C9.98278 8.0075 8.59828 6.60125 8.58 6.60125C7.94625 7.21625 7.32713 7.84125 6.71775 8.48125C4.97981 10.2787 4.87988 10.395 4.62272 10.9325C4.26928 11.675 4.11328 12.265 4.01822 13.1825C3.89391 14.4675 4.11328 16.035 4.6605 17.7687C5.61234 20.7712 7.24547 23.6375 9.67444 26.5675C10.3874 27.4262 12.2582 29.3462 13.0967 30.0775C17.0101 33.4912 21.1088 35.5375 24.7175 35.8687C26.1276 35.9962 27.2403 35.81 28.3408 35.2587C28.8649 34.9962 28.9782 34.8925 30.7454 33.0912L32.5979 31.2012L26.4603 24.9075L25.3695 26.0062C24.1142 27.275 23.7461 27.5875 23.1185 27.91C22.4323 28.2662 21.8095 28.4087 20.9284 28.4087C19.7572 28.4087 18.8004 28.0862 17.9388 27.3975C17.4817 27.0312 13.2783 22.7537 12.6007 21.9675C11.6744 20.8887 11.3015 19.9025 11.3015 18.535C11.3015 17.3437 11.5928 16.4162 12.2399 15.5325C12.3825 15.3325 13.0016 14.6487 13.611 14.0137L14.7152 12.8612L11.6634 9.73125ZM21.8424 4.04749V0.932495H22.3226C24.1654 0.932495 26.5639 1.48875 28.4359 2.35375C30.6617 3.37394 32.6368 4.8918 34.2167 6.79618C35.7966 8.70056 36.9412 10.9432 37.5667 13.36C37.8861 14.595 38.0908 16.065 38.0908 17.095V17.5975H35.0537L34.9769 16.6412C34.7063 13.2962 33.4059 10.3912 31.1354 8.06625C28.8685 5.7375 26.0362 4.40375 22.7748 4.12625L21.8424 4.04749ZM21.8424 7.8325V6.265H22.2617C22.7943 6.265 23.9423 6.435 24.57 6.60625C27.7168 7.47125 30.2128 9.52124 31.6875 12.475C32.4163 13.935 32.8916 15.7912 32.8916 17.2025V17.5975H29.8448L29.807 17.315C29.7923 17.1625 29.7546 16.8362 29.7351 16.6025C29.6254 15.3612 29.055 13.8862 28.2689 12.7975C27.6031 11.859 26.7502 11.0766 25.7667 10.5024C24.7833 9.92827 23.6919 9.57547 22.5652 9.4675L21.8656 9.4C21.8522 9.4 21.8412 8.69625 21.8412 7.8325H21.8424ZM21.8424 14.7325V11.5825L22.3567 11.62C25.1233 11.8412 27.4548 14.2325 27.6705 17.07L27.7071 17.5975H26.1787C25.0599 17.5975 24.737 17.6225 24.6273 17.475C24.5663 17.3975 24.5663 17.265 24.5371 17.0562C24.4079 16.0687 23.3659 14.99 22.3945 14.8337C22.2519 14.8087 22.0655 14.78 21.985 14.7612L21.8424 14.7325Z" fill="#FF5722"/>
</g>
<defs>
<clipPath id="clip0_0_1">
<rect width="39" height="40" fill="white"/>
</clipPath>
</defs>
</svg>
