<svg width="40" height="39" viewBox="0 0 40 39" fill="none" xmlns="http://www.w3.org/2000/svg">
<rect width="40" height="39" fill="#F5F5F5"/>
<path d="M36.665 9.75C36.665 7.96453 35.165 6.49837 33.335 6.49837H6.665C5.78218 6.50223 4.93672 6.84621 4.31294 7.45531C3.68915 8.06441 3.33763 8.88925 3.335 9.75V29.25C3.335 31.0355 4.835 32.5016 6.665 32.5016H33.335C34.2178 32.4978 35.0633 32.1538 35.6871 31.5447C36.3108 30.9356 36.6624 30.1108 36.665 29.25V9.75ZM33.335 9.75L20 17.8766L6.665 9.75H33.335ZM33.335 29.25H6.665V13.0016L20 21.1234L33.335 13.0016V29.25Z" fill="#FF5722"/>
</svg>
