<svg width="42" height="40" viewBox="0 0 42 40" fill="none" xmlns="http://www.w3.org/2000/svg">
<path d="M42 20.0496C42 8.98113 32.5916 0 21 0C9.40684 0 0 8.98263 0 20.0496C0 29.7541 7.22367 37.8374 16.7975 39.6992V26.0651H12.6013V20.0496H16.7975V15.0387C16.7996 13.1775 17.5749 11.3931 18.9534 10.077C20.3318 8.76089 22.2009 8.02064 24.1503 8.01865H29.3987V14.0341H25.2025C24.646 14.0357 24.1126 14.2471 23.7185 14.6222C23.3244 14.9974 23.1014 15.506 23.0981 16.0373V20.0496H29.3987V26.0651H23.0981V40C33.7052 39.0014 42 30.4594 42 20.0496Z" fill="#FF5722"/>
</svg>
