<svg width="39" height="37" viewBox="0 0 39 37" fill="none" xmlns="http://www.w3.org/2000/svg">
<path d="M19.5098 9.29165C13.973 9.29165 9.50747 13.4006 9.50747 18.491C9.50747 23.5853 13.973 27.6942 19.5098 27.6942C25.0465 27.6942 29.512 23.5853 29.512 18.4897C29.512 13.4006 25.0465 9.29165 19.5098 9.29165ZM19.5098 24.4757C15.9291 24.4757 13.0065 21.7928 13.0065 18.4897C13.0065 15.1918 15.9193 12.5089 19.5098 12.5089C23.0941 12.5089 26.013 15.1918 26.013 18.4897C26.013 21.7928 23.0843 24.4757 19.5098 24.4757ZM32.2542 8.91625C32.2542 10.1078 31.2061 11.0623 29.9215 11.0623C28.6211 11.0623 27.5888 10.1014 27.5888 8.91625C27.5888 7.72981 28.6309 6.76887 29.9215 6.76887C31.2061 6.76887 32.2542 7.72981 32.2542 8.91625ZM38.8757 11.0931C38.7294 8.22053 38.014 5.67341 35.7252 3.576C33.4437 1.47347 30.6784 0.817467 27.5498 0.672686C24.3323 0.507405 14.6774 0.507405 11.4538 0.672686C8.34113 0.813624 5.56969 1.46834 3.27966 3.56575C0.990847 5.66187 0.285191 8.21028 0.127972 11.0816C-0.0524027 14.0438 -0.0524027 22.928 0.127972 25.8915C0.280316 28.7641 0.990847 31.3112 3.27966 33.4086C5.57091 35.5047 8.33138 36.1659 11.4538 36.3055C14.6774 36.4759 24.3323 36.4759 27.5498 36.3055C30.6784 36.171 33.4437 35.515 35.724 33.4086C38.0092 31.3112 38.7197 28.7641 38.8757 25.8915C39.0622 22.928 39.0622 14.0553 38.8757 11.0931ZM34.7149 29.0703C34.0397 30.6424 32.7259 31.8481 31.0062 32.4836C28.4408 33.4189 22.347 33.2049 19.5098 33.2049C16.6725 33.2049 10.569 33.4099 8.00719 32.4836C6.30338 31.8583 4.98957 30.6462 4.29853 29.0703C3.27966 26.7077 3.51853 21.1022 3.51853 18.4897C3.51853 15.8824 3.28941 10.2667 4.29853 7.91431C4.97982 6.3435 6.29363 5.13656 8.00719 4.50106C10.5788 3.56575 16.6725 3.781 19.5098 3.781C22.347 3.781 28.4505 3.576 31.0062 4.50106C32.7161 5.12759 34.0287 6.33837 34.7149 7.91431C35.7338 10.2769 35.501 15.8824 35.501 18.4897C35.501 21.1035 35.7338 26.7179 34.7149 29.0703Z" fill="#FF5722"/>
</svg>
