<svg width="41" height="41" viewBox="0 0 41 41" fill="none" xmlns="http://www.w3.org/2000/svg">
<path d="M20.5 3.41838C18.9295 3.41703 17.3741 3.72538 15.9228 4.32578C14.4716 4.92618 13.1529 5.80684 12.0424 6.91739C10.9318 8.02793 10.0512 9.34655 9.45078 10.7978C8.85038 12.2491 8.54203 13.8045 8.54338 15.375C8.54338 24.3438 20.5 37.5816 20.5 37.5816C20.5 37.5816 32.4566 24.3438 32.4566 15.375C32.458 13.8045 32.1496 12.2491 31.5492 10.7978C30.9488 9.34655 30.0682 8.02793 28.9576 6.91739C27.8471 5.80684 26.5285 4.92618 25.0772 4.32578C23.6259 3.72538 22.0705 3.41703 20.5 3.41838ZM20.5 19.6441C19.9331 19.6539 19.3699 19.5506 18.8433 19.3404C18.3167 19.1301 17.8372 18.8171 17.4329 18.4196C17.0285 18.0221 16.7074 17.548 16.4882 17.025C16.269 16.5021 16.1562 15.9407 16.1563 15.3737C16.1564 14.8067 16.2694 14.2454 16.4887 13.7225C16.708 13.1996 17.0293 12.7256 17.4338 12.3282C17.8382 11.9308 18.3178 11.618 18.8445 11.4079C19.3711 11.1978 19.9343 11.0947 20.5013 11.1046C21.6209 11.1242 22.688 11.5827 23.4728 12.3814C24.2576 13.1802 24.6973 14.2552 24.6971 15.375C24.6969 16.4948 24.2569 17.5697 23.4719 18.3682C22.6869 19.1667 21.6196 19.6249 20.5 19.6441Z" fill="#FF5722"/>
</svg>
