<?xml version="1.0" encoding="UTF-8"?>
<svg xmlns="http://www.w3.org/2000/svg" xmlns:xlink="http://www.w3.org/1999/xlink" width="0" height="0">
<symbol id="calling" width="39" height="40" viewBox="0 0 39 40" fill="none">
<rect width="39" height="40" fill="#F5F5F5"/>
<g clip-path="url(#clip0_0_1)">
<path d="M5.70863 4.98499C7.26375 3.37874 8.55563 2.065 8.57878 2.065C8.59828 2.065 10.9736 4.4925 13.8633 7.45125L19.1149 12.8412L16.8858 15.1712C15.5293 16.5825 14.6067 17.6075 14.5251 17.7687C14.3544 18.13 14.3483 18.9262 14.5202 19.3012C14.6908 19.6675 19.8242 24.9312 20.1813 25.1075C20.542 25.2825 21.3232 25.2787 21.6755 25.1025C21.8339 25.02 22.8272 24.0725 24.208 22.6812L26.4798 20.395L37.0195 31.2012L34.1579 34.1262C32.3871 35.9325 31.0867 37.2075 30.7491 37.4612C30.0889 37.9442 29.3645 38.3273 28.598 38.5987C26.9551 39.14 24.7833 39.2137 22.7516 38.7937C18.8906 37.9937 14.887 35.8312 11.0833 32.49C9.74539 31.2936 8.48878 30.0047 7.32225 28.6325C4.95056 25.7912 3.081 22.6462 2.028 19.7325C0.390001 15.1937 0.548438 11.1375 2.47528 8.4625C2.72269 8.115 3.95606 6.79249 5.70863 4.98499ZM11.6634 9.73125C9.98278 8.0075 8.59828 6.60125 8.58 6.60125C7.94625 7.21625 7.32713 7.84125 6.71775 8.48125C4.97981 10.2787 4.87988 10.395 4.62272 10.9325C4.26928 11.675 4.11328 12.265 4.01822 13.1825C3.89391 14.4675 4.11328 16.035 4.6605 17.7687C5.61234 20.7712 7.24547 23.6375 9.67444 26.5675C10.3874 27.4262 12.2582 29.3462 13.0967 30.0775C17.0101 33.4912 21.1088 35.5375 24.7175 35.8687C26.1276 35.9962 27.2403 35.81 28.3408 35.2587C28.8649 34.9962 28.9782 34.8925 30.7454 33.0912L32.5979 31.2012L26.4603 24.9075L25.3695 26.0062C24.1142 27.275 23.7461 27.5875 23.1185 27.91C22.4323 28.2662 21.8095 28.4087 20.9284 28.4087C19.7572 28.4087 18.8004 28.0862 17.9388 27.3975C17.4817 27.0312 13.2783 22.7537 12.6007 21.9675C11.6744 20.8887 11.3015 19.9025 11.3015 18.535C11.3015 17.3437 11.5928 16.4162 12.2399 15.5325C12.3825 15.3325 13.0016 14.6487 13.611 14.0137L14.7152 12.8612L11.6634 9.73125ZM21.8424 4.04749V0.932495H22.3226C24.1654 0.932495 26.5639 1.48875 28.4359 2.35375C30.6617 3.37394 32.6368 4.8918 34.2167 6.79618C35.7966 8.70056 36.9412 10.9432 37.5667 13.36C37.8861 14.595 38.0908 16.065 38.0908 17.095V17.5975H35.0537L34.9769 16.6412C34.7063 13.2962 33.4059 10.3912 31.1354 8.06625C28.8685 5.7375 26.0362 4.40375 22.7748 4.12625L21.8424 4.04749ZM21.8424 7.8325V6.265H22.2617C22.7943 6.265 23.9423 6.435 24.57 6.60625C27.7168 7.47125 30.2128 9.52124 31.6875 12.475C32.4163 13.935 32.8916 15.7912 32.8916 17.2025V17.5975H29.8448L29.807 17.315C29.7923 17.1625 29.7546 16.8362 29.7351 16.6025C29.6254 15.3612 29.055 13.8862 28.2689 12.7975C27.6031 11.859 26.7502 11.0766 25.7667 10.5024C24.7833 9.92827 23.6919 9.57547 22.5652 9.4675L21.8656 9.4C21.8522 9.4 21.8412 8.69625 21.8412 7.8325H21.8424ZM21.8424 14.7325V11.5825L22.3567 11.62C25.1233 11.8412 27.4548 14.2325 27.6705 17.07L27.7071 17.5975H26.1787C25.0599 17.5975 24.737 17.6225 24.6273 17.475C24.5663 17.3975 24.5663 17.265 24.5371 17.0562C24.4079 16.0687 23.3659 14.99 22.3945 14.8337C22.2519 14.8087 22.0655 14.78 21.985 14.7612L21.8424 14.7325Z" fill="#FF5722"/>
</g>
<defs>
<clipPath>
<rect width="39" height="40" fill="white"/>
</clipPath>
</defs>
</symbol>

<symbol id="email" width="40" height="39" viewBox="0 0 40 39" fill="none">
<rect width="40" height="39" fill="#F5F5F5"/>
<path d="M36.665 9.75C36.665 7.96453 35.165 6.49837 33.335 6.49837H6.665C5.78218 6.50223 4.93672 6.84621 4.31294 7.45531C3.68915 8.06441 3.33763 8.88925 3.335 9.75V29.25C3.335 31.0355 4.835 32.5016 6.665 32.5016H33.335C34.2178 32.4978 35.0633 32.1538 35.6871 31.5447C36.3108 30.9356 36.6624 30.1108 36.665 29.25V9.75ZM33.335 9.75L20 17.8766L6.665 9.75H33.335ZM33.335 29.25H6.665V13.0016L20 21.1234L33.335 13.0016V29.25Z" fill="#FF5722"/>
</symbol>

<symbol id="facebook" width="42" height="40" viewBox="0 0 42 40" fill="none">
<path d="M42 20.0496C42 8.98113 32.5916 0 21 0C9.40684 0 0 8.98263 0 20.0496C0 29.7541 7.22367 37.8374 16.7975 39.6992V26.0651H12.6013V20.0496H16.7975V15.0387C16.7996 13.1775 17.5749 11.3931 18.9534 10.077C20.3318 8.76089 22.2009 8.02064 24.1503 8.01865H29.3987V14.0341H25.2025C24.646 14.0357 24.1126 14.2471 23.7185 14.6222C23.3244 14.9974 23.1014 15.506 23.0981 16.0373V20.0496H29.3987V26.0651H23.0981V40C33.7052 39.0014 42 30.4594 42 20.0496Z" fill="#FF5722"/>
</symbol>

<symbol id="instagram" width="39" height="37" viewBox="0 0 39 37" fill="none">
<path d="M19.5098 9.29165C13.973 9.29165 9.50747 13.4006 9.50747 18.491C9.50747 23.5853 13.973 27.6942 19.5098 27.6942C25.0465 27.6942 29.512 23.5853 29.512 18.4897C29.512 13.4006 25.0465 9.29165 19.5098 9.29165ZM19.5098 24.4757C15.9291 24.4757 13.0065 21.7928 13.0065 18.4897C13.0065 15.1918 15.9193 12.5089 19.5098 12.5089C23.0941 12.5089 26.013 15.1918 26.013 18.4897C26.013 21.7928 23.0843 24.4757 19.5098 24.4757ZM32.2542 8.91625C32.2542 10.1078 31.2061 11.0623 29.9215 11.0623C28.6211 11.0623 27.5888 10.1014 27.5888 8.91625C27.5888 7.72981 28.6309 6.76887 29.9215 6.76887C31.2061 6.76887 32.2542 7.72981 32.2542 8.91625ZM38.8757 11.0931C38.7294 8.22053 38.014 5.67341 35.7252 3.576C33.4437 1.47347 30.6784 0.817467 27.5498 0.672686C24.3323 0.507405 14.6774 0.507405 11.4538 0.672686C8.34113 0.813624 5.56969 1.46834 3.27966 3.56575C0.990847 5.66187 0.285191 8.21028 0.127972 11.0816C-0.0524027 14.0438 -0.0524027 22.928 0.127972 25.8915C0.280316 28.7641 0.990847 31.3112 3.27966 33.4086C5.57091 35.5047 8.33138 36.1659 11.4538 36.3055C14.6774 36.4759 24.3323 36.4759 27.5498 36.3055C30.6784 36.171 33.4437 35.515 35.724 33.4086C38.0092 31.3112 38.7197 28.7641 38.8757 25.8915C39.0622 22.928 39.0622 14.0553 38.8757 11.0931ZM34.7149 29.0703C34.0397 30.6424 32.7259 31.8481 31.0062 32.4836C28.4408 33.4189 22.347 33.2049 19.5098 33.2049C16.6725 33.2049 10.569 33.4099 8.00719 32.4836C6.30338 31.8583 4.98957 30.6462 4.29853 29.0703C3.27966 26.7077 3.51853 21.1022 3.51853 18.4897C3.51853 15.8824 3.28941 10.2667 4.29853 7.91431C4.97982 6.3435 6.29363 5.13656 8.00719 4.50106C10.5788 3.56575 16.6725 3.781 19.5098 3.781C22.347 3.781 28.4505 3.576 31.0062 4.50106C32.7161 5.12759 34.0287 6.33837 34.7149 7.91431C35.7338 10.2769 35.501 15.8824 35.501 18.4897C35.501 21.1035 35.7338 26.7179 34.7149 29.0703Z" fill="#FF5722"/>
</symbol>

<symbol id="location" width="41" height="41" viewBox="0 0 41 41" fill="none">
<path d="M20.5 3.41838C18.9295 3.41703 17.3741 3.72538 15.9228 4.32578C14.4716 4.92618 13.1529 5.80684 12.0424 6.91739C10.9318 8.02793 10.0512 9.34655 9.45078 10.7978C8.85038 12.2491 8.54203 13.8045 8.54338 15.375C8.54338 24.3438 20.5 37.5816 20.5 37.5816C20.5 37.5816 32.4566 24.3438 32.4566 15.375C32.458 13.8045 32.1496 12.2491 31.5492 10.7978C30.9488 9.34655 30.0682 8.02793 28.9576 6.91739C27.8471 5.80684 26.5285 4.92618 25.0772 4.32578C23.6259 3.72538 22.0705 3.41703 20.5 3.41838ZM20.5 19.6441C19.9331 19.6539 19.3699 19.5506 18.8433 19.3404C18.3167 19.1301 17.8372 18.8171 17.4329 18.4196C17.0285 18.0221 16.7074 17.548 16.4882 17.025C16.269 16.5021 16.1562 15.9407 16.1563 15.3737C16.1564 14.8067 16.2694 14.2454 16.4887 13.7225C16.708 13.1996 17.0293 12.7256 17.4338 12.3282C17.8382 11.9308 18.3178 11.618 18.8445 11.4079C19.3711 11.1978 19.9343 11.0947 20.5013 11.1046C21.6209 11.1242 22.688 11.5827 23.4728 12.3814C24.2576 13.1802 24.6973 14.2552 24.6971 15.375C24.6969 16.4948 24.2569 17.5697 23.4719 18.3682C22.6869 19.1667 21.6196 19.6249 20.5 19.6441Z" fill="#FF5722"/>
</symbol>

<symbol id="twitter" width="38" height="30" viewBox="0 0 38 30" fill="none">
<path d="M37.4785 3.41838C36.0802 4.01799 34.5962 4.41611 33.0751 4.59969C34.6778 3.67805 35.8739 2.23155 36.4398 0.530438C34.9342 1.38736 33.2872 1.99473 31.5687 2.32675C30.1511 0.855875 28.1623 0 25.9048 0C21.6948 0 18.2575 3.28384 18.2575 7.33259C18.2575 7.913 18.3247 8.47291 18.451 9.00334C15.3966 8.85646 12.4086 8.09944 9.68062 6.78133C6.9526 5.46322 4.5454 3.61341 2.61494 1.35172C1.93291 2.46657 1.5744 3.73441 1.57622 5.02506C1.57622 7.56706 2.91997 9.82463 4.99741 11.1059C3.72756 11.1059 2.54103 10.7651 1.50231 10.25V10.3051C1.50307 11.9981 2.11748 13.6388 3.24149 14.9494C4.3655 16.26 5.93003 17.1599 7.67013 17.4968C7.02513 17.6672 6.34116 17.753 5.64375 17.753C5.16 17.753 4.67759 17.7017 4.21131 17.6121C5.17613 20.5 7.98994 22.6525 11.3762 22.7076C8.76125 24.6897 5.44353 25.8505 1.8275 25.8505C1.21878 25.8505 0.610062 25.8146 0 25.7454C3.51579 27.9036 7.61001 29.0488 11.7914 29.0434C25.9062 29.0434 33.6636 17.8722 33.6636 8.18334C33.6636 7.85791 33.6636 7.55297 33.6488 7.22753C35.1571 6.18975 36.4548 4.89902 37.4785 3.41838Z" fill="#FF5722"/>
</symbol>

</svg>
