<svg width="38" height="30" viewBox="0 0 38 30" fill="none" xmlns="http://www.w3.org/2000/svg">
<path d="M37.4785 3.41838C36.0802 4.01799 34.5962 4.41611 33.0751 4.59969C34.6778 3.67805 35.8739 2.23155 36.4398 0.530438C34.9342 1.38736 33.2872 1.99473 31.5687 2.32675C30.1511 0.855875 28.1623 0 25.9048 0C21.6948 0 18.2575 3.28384 18.2575 7.33259C18.2575 7.913 18.3247 8.47291 18.451 9.00334C15.3966 8.85646 12.4086 8.09944 9.68062 6.78133C6.9526 5.46322 4.5454 3.61341 2.61494 1.35172C1.93291 2.46657 1.5744 3.73441 1.57622 5.02506C1.57622 7.56706 2.91997 9.82463 4.99741 11.1059C3.72756 11.1059 2.54103 10.7651 1.50231 10.25V10.3051C1.50307 11.9981 2.11748 13.6388 3.24149 14.9494C4.3655 16.26 5.93003 17.1599 7.67013 17.4968C7.02513 17.6672 6.34116 17.753 5.64375 17.753C5.16 17.753 4.67759 17.7017 4.21131 17.6121C5.17613 20.5 7.98994 22.6525 11.3762 22.7076C8.76125 24.6897 5.44353 25.8505 1.8275 25.8505C1.21878 25.8505 0.610062 25.8146 0 25.7454C3.51579 27.9036 7.61001 29.0488 11.7914 29.0434C25.9062 29.0434 33.6636 17.8722 33.6636 8.18334C33.6636 7.85791 33.6636 7.55297 33.6488 7.22753C35.1571 6.18975 36.4548 4.89902 37.4785 3.41838Z" fill="#FF5722"/>
</svg>
